<svg xmlns="http://www.w3.org/2000/svg" width="30" height="30" viewBox="0 0 30 30"><g><g><path fill="#fff" d="M25.663 4.325l1.118.04c.31 0 .716-.029.959.04h1.517c.404.144.715.453.76.96h-.04l-.04.24h-.04v.12l-.08.04v.08l-.959.92-2.795 2.84H21.79l-.959 1-.2.16c-.277.385-.628.67-.958 1l-1.318 1.36a5.93 5.93 0 0 0-.719.64l-2.036 2.08h-.12l-.04.08-.2.04v.04c-.231.075-.65-.086-.758-.16l-.2-.24-.08-.04-.04-.16h-.04v-.08h-.04v-.079h-.04v-.48h.04l.04-.16h.04v-.12l.08-.04v-.08h.04c.057-.071.09-.096.12-.2h.08c.028-.124.077-.17.2-.2v-.08h.08v-.08h.079v-.08h.08v-.08H15c.029-.11.01-.09.12-.12v-.08h.08v-.08h.08v-.08h.08v-.08h.079v-.08h.08c.029-.11.011-.09.12-.12v-.08h.08v-.08h.08v-.08h.08v-.08h.08v-.08h.08c.028-.111.01-.09.119-.12v-.08h.08v-.08h.08v-.08h.08v-.08h.08v-.08h.08c.028-.111.01-.09.12-.12v-.08h.079v-.08h.08c.052-.198.416-.458.559-.6v-.04l1.318-1.281c.137-.138.365-.468.559-.52v-.08h.08v-.08h.08v-.08h.08c.028-.11.01-.09.12-.12v-.08h.079v-.08h.08v-.08h.08v-.08h.08v-.08c.11-.03.089-.011.12-.12h.08v-.08h.08v-.08h.08v-.08h.079c.079-.443.04-1.052.04-1.56v-2.8c.097-.057.13-.15.2-.2.34-.247.587-.55.878-.841l2.037-2 .559-.6h.08l.04-.08h.08l.04-.08c.067-.042.381-.124.519-.08v.04h.12v.04h.08l.04.08h.119v.04l.24.2v.08h.04v.08h.04v.12h.04v.68c.068.247-.03.667.04.92h.04v2.04zm-7.348 1.76l-.36-.12v-.04l-.239-.04v-.04h-.08v-.04l-.24-.04v-.04h-.119v-.04l-.28-.04v-.04l-.28-.04v-.04l-1.557-.28h-.519v-.04c-.207-.058-1.122-.004-1.278.04h-.519v.04h-.32v.04h-.279v.04h-.2v.04h-.24v.04h-.159v.04l-.36.04-1.437.48v.04l-.16.04v.04h-.08v.04h-.12v.04l-.239.08v.04h-.08v.04h-.08v.04l-.24.08-.04.08-.239.08-.04.08-.16.04-.04.08-.16.04v.04l-.119.04-.04.08h-.08l-.08.12h-.08l-.04.08h-.08l-.08.12h-.079l-.08.12h-.08l-.12.16h-.08l-.2.24h-.079l-.28.32-.678.64v.08l-.24.2v.08l-.16.12v.08l-.12.08v.08l-.12.08v.08l-.08.04v.08l-.119.08v.08l-.08.04v.08l-.08.04-.04.16-.08.04-.04.16-.08.04-.08.24-.08.04v.08h-.039v.08h-.04v.08h-.04v.08h-.04v.08h-.04l-.08.24h-.04v.12h-.04v.08h-.04v.08h-.04v.08h-.04v.12h-.04v.08h-.04c-.012.08-.026.16-.04.24H3.86v.08h-.04l-.4 1.44-.08.72H3.3v.32H3.26v.52h-.04c-.058.208-.004 1.126.04 1.28v.52h.04v.321h.04v.28h.04v.2h.04v.24h.04v.16h.04v.2h.04v.16h.04l.04.28h.04v.12h.04v.16h.04v.12h.04v.12h.039v.12h.04v.08h.04l.04.24h.04v.08h.04v.12h.04l.04.16h.04v.08h.04v.12h.04l.08.24h.04v.08h.04v.08h.039l.08.24.08.04.08.24.08.04.04.16.08.04.04.16.08.04v.08h.039l.04.12.08.04v.08l.12.08v.08l.12.08v.08l.12.08v.08l.159.12v.08l.24.2v.08l.679.64c.093.108.186.214.28.32h.079l.2.24h.08l.12.16h.08c.026.041.052.081.079.12h.08l.08.121h.08l.08.12h.08l.04.08h.08c.012.027.026.053.04.08l.119.04v.04l.16.04.04.08.16.04.04.08.239.08.04.08h.08v.04h.08v.04h.08v.04h.08v.04h.08v.04h.079v.04l.24.08v.04l.2.04v.04h.08v.04h.119v.04h.08v.04l.24.04v.04h.08v.04l.359.08v.04h.16v.04h.12v.04l.279.04v.04h.16v.04l.359.04v.04h.24v.04h.2v.04h.279v.04l.838.04v.04c.208.058 1.123.004 1.278-.04l.839-.04v-.04h.28v-.04h.2v-.04h.239v-.04h.16v-.04l.359-.04v-.04h.12v-.04h.16v-.04h.12v-.04h.16v-.04h.119v-.04h.12v-.04h.12v-.04h.08v-.04l.239-.04v-.04h.08v-.04h.12v-.04l.16-.04v-.04h.08v-.04h.119v-.04l.24-.08v-.04h.08v-.04h.08v-.04l.239-.08.04-.08.24-.08.04-.08.16-.04c.012-.027.026-.053.04-.08l.159-.04.04-.08h.08v-.04l.12-.04.04-.08h.08l.04-.08.119-.04.08-.12h.08l.08-.12h.08l.12-.16h.08l.199-.24h.08l.4-.44c.185-.174.372-.347.558-.52v-.08l.24-.2v-.08l.16-.12v-.08l.12-.08v-.08l.12-.08.039-.12.08-.04v-.08l.08-.04.04-.12h.04v-.08l.08-.04.04-.16.08-.04.04-.16.08-.04.079-.24.08-.04v-.08h.04v-.08h.04v-.08h.04v-.08h.04v-.08h.04v-.08h.04l.08-.24h.04v-.12h.04c.012-.054.026-.107.04-.16h.039l.48-1.44.04-.36h.04v-.16h.039v-.241h.04v-.2h.04l.08-.72v-.4h.04c.058-.208.003-1.125-.04-1.28l-.04-.84h-.04v-.28h-.04v-.2h-.04v-.24h-.04l-.04-.36h-.04v-.16h-.04l-.04-.28h-.04v-.12h-.04v-.16h-.04v-.12h-.04v-.12h-.04v-.12h-.04v-.08h-.04l-.039-.24h-.04l-.12-.36c.83.003 1.917.093 2.556-.12l.52-.08v-.04l.119-.04v-.04c.078-.02.053.023.08.04.137.124.125.407.2.6.177.455.252 1.026.399 1.52l.04.52h.04v.28h.04v.4h.04v.52c.084.308.086 1.212 0 1.52v.52h-.04v.4h-.04v.28h-.04v.28c-.056.188-.103.458-.16.64v.2h-.04v.16h-.04v.16h-.04v.16h-.04v.16h-.04v.16h-.04v.12h-.04v.12h-.04v.12h-.04l-.04.28h-.04v.08h-.04c-.026.12-.052.24-.08.36h-.039v.08h-.04v.12h-.04l-.04.2h-.04v.08h-.04v.12h-.04l-.08.24h-.04v.08h-.04v.12h-.04l-.08.24h-.04v.08h-.039l-.08.24-.08.04v.08h-.04v.08h-.04v.08h-.04v.08l-.08.04-.08.24-.08.04v.08l-.079.04-.04.16-.08.04v.08l-.08.04v.08l-.08.04v.08h-.04l-.04.12-.08.041v.08l-.12.08v.08l-.119.08v.08l-.12.08v.08l-.16.12v.08l-.16.12c-.317.442-.663.745-1.037 1.12l-.4.44h-.08l-.2.24h-.08l-.159.2h-.08l-.12.16h-.08l-.08.12h-.08l-.08.12h-.079l-.08.12h-.08l-.04.08-.12.04v.04h-.08l-.04.08h-.08c-.012.027-.026.053-.04.08h-.079l-.04.08-.16.04-.04.08-.12.04v.04h-.08v.04h-.08v.04h-.079l-.04.08h-.08v.04h-.08v.04h-.08v.04h-.08l-.04.08-.239.08v.04h-.08v.04l-.24.08v.04h-.12v.04h-.08v.04l-.239.08v.04h-.12v.04h-.08v.04h-.12v.04h-.079v.04h-.12v.04h-.08v.04l-.36.08v.04h-.079v.04l-.28.04v.04h-.12v.04h-.12v.04h-.119v.04h-.16v.04h-.16v.04h-.16v.04h-.159v.04h-.16v.04h-.2v.04h-.199v.04h-.2v.04h-.24v.04l-.558.04v.04l-1.598.08-1.397-.04v-.04h-.36v-.04h-.32l-1.876-.4c-.951-.342-1.924-.66-2.716-1.16h-.08v-.04h-.08v-.04h-.08v-.04h-.08a21.835 21.835 0 0 0-.04-.08l-.239-.08v-.04l-.12-.04a20.669 20.669 0 0 0-.04-.08l-.16-.04v-.04l-.12-.04a20.669 20.669 0 0 1-.04-.08h-.079a12.553 12.553 0 0 1-.04-.08h-.08v-.04l-.12-.04a33.032 33.032 0 0 0-.04-.08h-.08l-.08-.12h-.08l-.079-.12h-.08l-.08-.12h-.08l-.12-.16h-.08l-.08-.12h-.04a20.669 20.669 0 0 0-.039-.08h-.08l-.2-.24h-.08l-.479-.52-.679-.64v-.08l-.24-.2v-.08l-.199-.16v-.08l-.16-.12v-.08l-.12-.08v-.08l-.12-.08v-.08l-.119-.08v-.08l-.08-.04-.04-.12h-.04v-.08l-.08-.04v-.08a9.694 9.694 0 0 1-.08-.04v-.08a66.141 66.141 0 0 0-.08-.04l-.04-.16-.08-.04a55.97 55.97 0 0 1-.04-.12h-.039l-.08-.24-.08-.04v-.08h-.04v-.08h-.04v-.08h-.04v-.08c-.496-.793-.82-1.768-1.158-2.72l-.04-.32h-.04v-.161h-.04v-.16h-.04v-.16h-.04v-.2h-.04l-.04-.4h-.04v-.24h-.04v-.28H.146l-.04-.68h-.04v-.52c-.085-.309-.087-1.212 0-1.52v-.52h.04l.04-.68h.04v-.28c.055-.189.103-.458.16-.64v-.2h.04v-.16h.04v-.16h.04v-.16h.04v-.16h.04v-.16h.04v-.12h.04v-.12h.04v-.12h.04v-.16h.04v-.12h.039v-.08h.04l.08-.36h.04v-.081h.04v-.12h.04v-.08h.04v-.12h.04v-.08h.04v-.12h.04l.08-.24h.04v-.08h.04v-.12h.039l.08-.24h.04v-.08h.04l.08-.24.08-.04v-.08h.04v-.08h.04v-.08h.04v-.08l.08-.04.079-.24h.04l.04-.12.08-.04.04-.16h.04l.04-.12.08-.04v-.08h.04l.04-.12.08-.04v-.08l.119-.08v-.08l.08-.04v-.08l.12-.08v-.08l.12-.08v-.08l.16-.12v-.08l.119-.08v-.04l.08-.04v-.08l.24-.2v-.08l.598-.56.56-.6h.08l.2-.24h.079l.16-.2h.08l.12-.16h.08l.08-.12h.079l.08-.12h.08l.04-.08h.08l.08-.12h.08l.04-.08h.08c.012-.027.026-.054.04-.08h.079l.04-.08h.08l.04-.08.16-.04.04-.08.12-.04v-.04h.079v-.04h.08v-.04h.08l.04-.08h.08v-.04h.08v-.04h.08v-.04h.08c.012-.027.026-.054.04-.08h.079v-.04l.24-.08v-.04l.24-.08v-.04h.119v-.04h.08v-.04l.24-.08v-.04h.12v-.04h.08v-.04h.119v-.04h.08v-.04h.12v-.04h.08v-.04l.359-.08v-.04h.08v-.04l.28-.04v-.04h.12v-.04h.119v-.04h.12v-.04l.32-.04v-.04h.159v-.04h.16v-.04h.16v-.04h.2v-.04l.398-.04v-.04h.24v-.04h.28v-.04h.28v-.04h.359v-.04h.559c.307-.086 1.21-.088 1.517 0h.56v.04h.359v.04h.28v.04h.279v.04l.439.04v.04c.133.012.266.026.4.04v.04l.319.04v.04h.16v.04h.16v.04h.159v.04h.12v.04h.12v.04h.12v.04h.16v.04h.119v.04l.2.04v.04c-.043.027-.184.198-.2.24v.2h-.04v.16h-.04v.16h-.04v.16h-.04v.16h-.04v2.16zm3.435 6.64l.12.4h.04v.12h.04v.12h.04v.12h.04l.04.28h.04l.239 1.24v.44h.04v.6c0 .527-.036 1.07-.16 1.48l-.04.401h-.04l-.04.32h-.04l-.04.28h-.04v.12h-.04v.12h-.04v.12h-.04v.08h-.04v.12h-.04v.08h-.04v.12h-.04l-.04.16h-.04v.08h-.039v.12h-.04l-.04.16h-.04l-.04.16-.08.04-.08.24-.08.04-.04.16h-.04l-.04.12-.079.04v.08h-.04l-.04.12-.08.04v.08l-.12.08v.08l-.12.08v.08l-.199.16v.08l-.4.36-.519.56h-.08c-.053.068-.106.134-.16.2h-.079l-.08.12h-.08l-.08.12h-.08l-.04.08-.12.04v.04h-.08c-.012.027-.026.054-.039.08l-.12.04v.04l-.16.04-.04.08-.24.08c-.012.028-.026.054-.04.08l-.159.04v.04l-.16.04v.04h-.12v.04h-.08v.04l-.159.04v.04h-.12v.04h-.08v.04l-.2.04v.04h-.12v.04h-.119v.04h-.12v.04c-.093.014-.186.028-.28.04v.04l-.319.041v.04h-.2v.04h-.2v.04h-.239v.04H15v.04h-.438c-.437.122-1.467.028-1.837-.08h-.24l-1.358-.36v-.04h-.08v-.04h-.12v-.04h-.08v-.04h-.12v-.04l-.159-.04v-.04h-.08v-.04l-.36-.12a33.032 33.032 0 0 0-.04-.08h-.08v-.04H9.93v-.04h-.08v-.04h-.08l-.04-.08-.16-.04a12.738 12.738 0 0 1-.04-.08h-.08c-.012-.027-.026-.054-.04-.08H9.33v-.04l-.12-.04a10.245 10.245 0 0 1-.04-.08h-.08l-.08-.12h-.08l-.08-.12h-.079l-.16-.2h-.08l-.679-.72-.24-.2v-.08l-.199-.16v-.08l-.12-.08v-.08l-.12-.08v-.08l-.08-.04v-.08l-.08-.04v-.08l-.08-.04v-.08l-.079-.04-.04-.16-.08-.04v-.08h-.04v-.08h-.04v-.08h-.04v-.081l-.08-.04-.12-.36h-.04v-.08h-.04l-.039-.16h-.04v-.12h-.04v-.08h-.04v-.12h-.04v-.08h-.04v-.12h-.04v-.12h-.04v-.12h-.04v-.16h-.04v-.12h-.04l-.239-1.24v-.44h-.04c-.054-.194 0-.98.04-1.12v-.44c.08-.285.112-.651.2-.92v-.16h.04v-.16h.04v-.12h.04v-.16h.04v-.12h.04v-.12h.04v-.12h.04v-.08h.04v-.12h.04v-.08h.04v-.12h.039l.04-.16h.04v-.08h.04v-.12h.04l.04-.16h.04v-.08l.08-.04v-.08h.04v-.08h.04v-.08h.04v-.081l.08-.04c.012-.053.026-.106.04-.16h.04l.039-.12.08-.04v-.08h.04l.04-.12.08-.04v-.08l.12-.08v-.08l.12-.08v-.08l.199-.16v-.08l.48-.44.438-.48h.08l.16-.2h.08l.08-.12h.08l.08-.12h.08l.04-.08.119-.04v-.04h.08l.04-.08.12-.04v-.04l.16-.04.04-.08.239-.08v-.04h.08l.04-.08.36-.12v-.04h.079v-.04l.16-.04v-.04h.12v-.04h.08v-.04h.12v-.04h.08v-.04h.119v-.04h.12v-.04h.12v-.04l.28-.04v-.04h.159v-.04h.16v-.04h.2v-.04h.199v-.04h.24v-.04h.279v-.04h.44c.14-.04.925-.094 1.117-.04v.04h.44v.04h.28v.04h.239v.04h.2v.04l.359.04v.04h.16v.04l.28.04v.04h.12v.04h.119v.04h.12v.04h.08v.04c.147.064.3.049.399.16h-.04c-.061.107-.157.157-.24.24l-.479.48-.44.48-.199.16v.08l-.12.04-.04.08-.2.16a77.95 77.95 0 0 1-.199.28h-.08l-.479.52h-.4c-.05-.045-.749-.077-.878-.04v.04h-.36v.04h-.199v.04h-.2v.04h-.16v.04h-.12v.04h-.159v.04h-.08v.04l-.24.04v.04l-.16.04v.04h-.119v.04h-.08v.04h-.08l-.04.08-.24.08-.04.08-.159.04-.08.12h-.08l-.04.08h-.08l-.12.16c-.746.54-1.253 1.34-1.637 2.24l-.04.28h-.04v.12h-.04v.16h-.04v.2c-.163.54-.166 1.461 0 2l.04.361h.04v.12h.04l.04.28h.04v.08h.04v.12h.04l.04.16h.04l.12.36.08.04.04.16.08.04.04.16.12.08.04.12h.04v.08l.159.12c.65.906 1.612 1.426 2.795 1.8h.2v.04h.2v.04h.36v.04c.195.055.739 0 .878-.04h.359v-.04h.2v-.04h.2v-.04h.16v-.04h.119v-.04h.16v-.04h.08v-.04l.24-.04v-.04l.159-.04v-.04l.36-.12.04-.08.16-.04.039-.08h.08v-.04h.08l.08-.12h.08l.04-.08h.08l.12-.16h.079l.36-.4.279-.24v-.08l.16-.12v-.08l.08-.04v-.08l.12-.08v-.08h.04v-.08l.08-.04.039-.16.08-.04v-.08h.04l.04-.16h.04v-.12h.04l.04-.16h.04l.04-.2h.04l.04-.28h.04v-.12h.04v-.16h.04v-.2h.039v-.2h.04v-.36c.103-.369 0-.846 0-1.24l.28-.2.04-.12.479-.4v-.08h.04l.16-.2h.08l.04-.08h.04l.358-.44h.08l.08-.12.08-.04v-.08l.24-.2.04-.08h.08l.08-.12.08-.04v-.08h.04l.159-.2h.12z"/></g></g></svg>